<svg width="55" height="23" viewBox="0 0 55 23" fill="none" xmlns="http://www.w3.org/2000/svg">
<circle cx="11.5" cy="11.5" r="11.5" fill="#EAF0F0"/>
<path d="M9.31343 15.13C8.58543 15.13 7.97009 14.9307 7.46743 14.532C6.96476 14.1247 6.58343 13.57 6.32343 12.868C6.07209 12.1573 5.94643 11.3513 5.94643 10.45C5.94643 9.54 6.07209 8.734 6.32343 8.032C6.58343 7.32133 6.96476 6.76667 7.46743 6.368C7.97009 5.96933 8.58543 5.77 9.31343 5.77C10.0414 5.77 10.6524 5.96933 11.1464 6.368C11.6491 6.76667 12.0304 7.32133 12.2904 8.032C12.5504 8.734 12.6804 9.54 12.6804 10.45C12.6804 11.3513 12.5504 12.1573 12.2904 12.868C12.0304 13.57 11.6491 14.1247 11.1464 14.532C10.6524 14.9307 10.0414 15.13 9.31343 15.13ZM9.31343 13.817C9.72076 13.817 10.0674 13.687 10.3534 13.427C10.6481 13.167 10.8734 12.7857 11.0294 12.283C11.1941 11.7803 11.2764 11.1693 11.2764 10.45C11.2764 9.722 11.1941 9.10667 11.0294 8.604C10.8734 8.10133 10.6481 7.72 10.3534 7.46C10.0674 7.2 9.72076 7.07 9.31343 7.07C8.90609 7.07 8.55509 7.2 8.26043 7.46C7.96576 7.72 7.74043 8.10133 7.58443 8.604C7.42843 9.10667 7.35043 9.722 7.35043 10.45C7.35043 11.1693 7.42843 11.7803 7.58443 12.283C7.74043 12.7857 7.96576 13.167 8.26043 13.427C8.55509 13.687 8.90609 13.817 9.31343 13.817ZM14.7838 14.504C14.5342 14.504 14.3132 14.4364 14.1208 14.3012C13.9284 14.166 13.7776 13.984 13.6684 13.7552C13.5592 13.5264 13.5046 13.2716 13.5046 12.9908C13.5046 12.7048 13.5592 12.4474 13.6684 12.2186C13.7776 11.9898 13.9284 11.8078 14.1208 11.6726C14.3132 11.5374 14.5342 11.4698 14.7838 11.4698C15.0386 11.4698 15.2596 11.5374 15.4468 11.6726C15.6392 11.8078 15.7874 11.9898 15.8914 12.2186C16.0006 12.4474 16.0552 12.7048 16.0552 12.9908C16.0552 13.2716 15.998 13.5264 15.8836 13.7552C15.7692 13.984 15.6158 14.166 15.4234 14.3012C15.2362 14.4364 15.023 14.504 14.7838 14.504ZM14.7838 13.8098C14.9398 13.8098 15.0594 13.7318 15.1426 13.5758C15.231 13.4198 15.2752 13.2248 15.2752 12.9908C15.2752 12.7568 15.2336 12.5618 15.1504 12.4058C15.0672 12.2498 14.945 12.1718 14.7838 12.1718C14.6278 12.1718 14.5056 12.2498 14.4172 12.4058C14.3288 12.5618 14.2846 12.7568 14.2846 12.9908C14.2846 13.2248 14.3262 13.4198 14.4094 13.5758C14.4978 13.7318 14.6226 13.8098 14.7838 13.8098ZM18.13 17.078C17.8908 17.078 17.675 17.0104 17.4826 16.8752C17.2902 16.74 17.1368 16.558 17.0224 16.3292C16.908 16.1004 16.8508 15.8456 16.8508 15.5648C16.8508 15.2788 16.9054 15.0214 17.0146 14.7926C17.1238 14.5638 17.2746 14.3818 17.467 14.2466C17.6594 14.1114 17.8804 14.0438 18.13 14.0438C18.3848 14.0438 18.6058 14.1114 18.793 14.2466C18.9854 14.3818 19.1336 14.5638 19.2376 14.7926C19.3468 15.0214 19.4014 15.2788 19.4014 15.5648C19.4014 15.8456 19.3442 16.1004 19.2298 16.3292C19.1154 16.558 18.962 16.74 18.7696 16.8752C18.5824 17.0104 18.3692 17.078 18.13 17.078ZM18.13 16.3838C18.286 16.3838 18.4056 16.3058 18.4888 16.1498C18.5772 15.9938 18.6214 15.7988 18.6214 15.5648C18.6214 15.3308 18.5798 15.1358 18.4966 14.9798C18.4134 14.8238 18.2912 14.7458 18.13 14.7458C17.974 14.7458 17.8518 14.8238 17.7634 14.9798C17.675 15.1358 17.6308 15.3308 17.6308 15.5648C17.6308 15.7988 17.6724 15.9938 17.7556 16.1498C17.844 16.3058 17.9688 16.3838 18.13 16.3838ZM14.8774 17.0156C14.7942 17.0156 14.7058 16.9818 14.6122 16.9142C14.5186 16.8414 14.4718 16.7478 14.4718 16.6334C14.4718 16.5658 14.4978 16.4878 14.5498 16.3994L17.6542 11.7116C17.7478 11.5868 17.8544 11.5244 17.974 11.5244C18.0624 11.5244 18.1508 11.5582 18.2392 11.6258C18.3328 11.6934 18.3796 11.787 18.3796 11.9066C18.3796 11.9742 18.3536 12.0522 18.3016 12.1406L15.1972 16.8284C15.1036 16.9532 14.997 17.0156 14.8774 17.0156Z" fill="#060D0F"/>
<g clip-path="url(#clip0_3604_120)">
<path d="M53.4465 13.9315C52.6258 15.1361 49.8904 17.0696 46.3078 18.9768C44.9527 19.6984 43.5291 20.0414 42.0764 19.9962C40.8477 19.9576 39.8327 19.6592 39.0914 19.441C38.8492 19.3698 38.6399 19.3082 38.4637 19.2677C37.9419 19.1482 37.1552 18.8127 36.305 18.3479C35.7415 18.0397 35.1252 17.6564 35.018 17.5116C35.011 17.5021 35.0064 17.4936 35.0039 17.4863C34.9984 17.4705 34.9987 17.4544 35.0048 17.4408C35.0067 17.4364 35.0091 17.4319 35.0122 17.4282C35.0975 17.3181 35.3247 17.026 37.6506 17.1186C40.5352 17.2334 43.4217 15.6427 45.6577 13.8828C46.3118 13.368 46.9217 12.7904 47.456 12.1444C48.0082 11.4769 48.3477 10.7453 48.7823 10.0079C49.2753 9.17162 50.4257 8.58984 51.3188 8.33404C51.3281 8.33151 51.3379 8.33183 51.3471 8.33531C51.4496 8.37325 53.3551 9.08688 54.3339 9.70217C54.608 9.87418 54.8093 10.0386 54.8784 10.1783C55.2044 10.8382 54.2375 12.7701 53.4465 13.9311V13.9315Z" fill="#FF2311"/>
<path opacity="0.6" d="M53.4465 13.9315C52.6258 15.1361 49.8904 17.0696 46.3078 18.9768C44.9527 19.6984 43.5291 20.0414 42.0764 19.9962C40.8477 19.9576 39.8327 19.6592 39.0914 19.441C38.8492 19.3698 38.6399 19.3082 38.4637 19.2677C37.9419 19.1482 37.1552 18.8127 36.305 18.3479C35.7415 18.0397 35.1252 17.6564 35.018 17.5116C35.011 17.5021 35.0064 17.4936 35.0039 17.4863C34.9984 17.4705 34.9987 17.4544 35.0048 17.4408C36.3422 17.7728 38.3216 18.8548 39.5159 19.1419C43.8502 20.1831 46.8388 17.7788 48.4137 16.8027C49.0886 16.3844 49.7077 15.8785 50.3201 15.3685C51.2728 14.5752 52.2234 13.7585 52.9665 12.7556C53.3695 12.2117 53.7074 11.611 53.933 10.9663C54.0665 10.5853 54.0963 10.0569 54.3339 9.70249C54.608 9.8745 54.8093 10.0389 54.8784 10.1787C55.2044 10.8385 54.2375 12.7704 53.4465 13.9315Z" fill="#C91B16"/>
<path style="mix-blend-mode:lighten" d="M42.5787 18.482C43.7402 18.2834 44.8642 17.8768 45.8804 17.2524C46.9584 16.59 47.944 15.7827 48.963 15.028C49.7445 14.4491 50.5496 13.8983 51.2647 13.2346C51.9799 12.5709 52.6097 11.7811 52.9483 10.8531C53.0514 10.5701 53.1272 10.258 53.0453 9.96746C52.9467 9.61776 52.6389 9.37113 52.316 9.22347C51.7058 8.9446 50.982 8.9427 50.3706 9.21905C49.9074 9.42836 49.5139 9.7945 49.258 10.2432C48.9842 10.7231 48.9308 11.3074 48.6235 11.7688C48.3015 12.2522 47.8556 12.6364 47.4206 13.0069C46.0152 14.204 44.6505 15.611 42.9946 16.4189C42.5471 16.6371 41.8682 17.0225 41.3645 17.0225C40.6806 17.2015 39.9793 17.2979 39.2887 17.4516C38.2263 17.6877 37.2101 17.3289 36.4768 17.4032C36.4185 17.4092 36.3688 17.493 36.4154 17.5297C36.6858 17.7431 37.5213 18.0719 37.7046 18.1304C39.2761 18.6325 40.9636 18.7587 42.5784 18.4823L42.5787 18.482Z" fill="url(#paint0_linear_3604_120)"/>
<path style="mix-blend-mode:lighten" d="M46.2748 14.6239C47.8 13.4752 48.6161 12.7091 49.0612 11.9645C49.4384 11.3334 49.5001 10.6994 50.0167 10.0522C50.1775 9.85046 50.3436 9.63957 50.5729 9.52827C50.8022 9.41697 51.3086 9.47547 51.4556 9.68794C51.9921 10.4645 51.3976 11.6113 51.0873 12.1542C50.68 12.8669 49.133 14.229 48.3249 14.5888C47.6923 14.8705 46.6674 15.569 46.1456 15.9168C45.734 16.1909 45.0413 16.6605 44.4317 16.5286C44.0891 16.4543 44.5053 16.1141 44.6511 15.9905C45.1898 15.5348 45.7098 15.0495 46.2748 14.6239Z" fill="url(#paint1_linear_3604_120)"/>
<path opacity="0.6" d="M50.0711 10.4841C49.9916 10.6412 49.9385 10.8085 49.9201 10.9182C49.8691 11.2249 50.2362 11.1326 50.3931 11.0387C50.5846 10.9242 50.9996 10.2707 50.673 10.1018C50.4229 9.97251 50.2077 10.2138 50.0708 10.4841H50.0711Z" fill="#FFD4D4"/>
<path opacity="0.6" d="M49.921 11.3637C50.3507 11.5218 50.1128 11.9101 49.5834 12.5336C48.5091 13.7984 47.7602 14.0997 47.7111 14.0829C47.662 14.0662 48.3249 13.6403 48.9388 12.7233C49.3882 12.0521 49.6923 11.2796 49.921 11.3637Z" fill="#FFD4D4"/>
<path d="M54.9348 11.0615C54.8925 11.175 54.8329 11.2512 54.7755 11.2651C54.7546 11.2701 54.7301 11.2613 54.7006 11.2379C54.6957 11.2341 54.6908 11.23 54.6859 11.2252C54.5735 11.1247 54.3964 10.837 54.1113 10.3538C53.9603 10.098 53.7761 9.78596 53.7 9.70534C53.6905 9.69522 53.6825 9.68858 53.6767 9.68637C53.6656 9.68479 53.6441 9.68858 53.615 9.69617C53.5241 9.71988 53.3602 9.77996 53.2111 9.83466C52.7973 9.98579 52.4968 10.0898 52.3968 10.0487C52.3928 10.0471 52.3891 10.0452 52.3854 10.043C52.3255 10.0073 52.2838 9.89094 52.2454 9.71387C52.2236 9.61459 52.2031 9.49634 52.1807 9.36259C52.1515 9.18964 52.1193 8.99772 52.0843 8.91108C52.0763 8.89116 52.0683 8.87662 52.06 8.86934C52.0468 8.85733 52.0073 8.84974 51.9514 8.84531C51.8476 8.83678 51.6883 8.83867 51.5416 8.84026C51.0576 8.84563 50.6988 8.83931 50.5901 8.71979C50.5871 8.71631 50.584 8.71283 50.5812 8.70904C50.5748 8.70019 50.5696 8.69102 50.5656 8.68121C50.545 8.63062 50.553 8.56802 50.5892 8.4953C50.5917 8.48992 50.5944 8.48455 50.5975 8.47917C50.6107 8.45483 50.6276 8.4289 50.6475 8.40234C50.8658 8.10987 51.4646 7.70231 52.1039 7.59986C52.5287 7.53188 52.8501 7.19704 53.0788 6.84355C53.2549 6.57163 53.4176 6.27125 53.4928 5.94653C53.576 5.58861 53.5287 5.22025 53.4707 4.86202C53.3915 4.37256 52.9907 3.91409 52.6798 3.54637C52.6632 3.52677 52.6457 3.5059 52.6405 3.48029C52.6356 3.45657 52.6417 3.43223 52.6478 3.40883C52.6712 3.32093 52.7163 3.17928 52.7902 3.08822C52.8437 3.0215 52.9127 2.98166 52.9999 3.00854C53.3243 3.10909 53.8811 4.0314 53.9707 4.51896C54.0726 5.07386 54.0275 6.24754 53.9913 7.1904L53.9904 7.2138C53.9867 7.30676 53.9827 7.39276 53.9787 7.47276C53.944 8.19587 53.9324 8.43933 54.553 9.37208C55.0315 10.0911 55.064 10.7162 54.9348 11.0615Z" fill="#4F970F"/>
<path opacity="0.5" d="M54.9348 11.0615C54.8925 11.175 54.8329 11.2512 54.7755 11.2651C54.7546 11.2701 54.7301 11.2613 54.7006 11.2379C54.6957 11.2341 54.6908 11.23 54.6859 11.2252C54.5735 11.1247 54.3964 10.837 54.1113 10.3538C53.9603 10.098 53.7761 9.78596 53.7 9.70534C53.6905 9.69522 53.6825 9.68858 53.6767 9.68637C53.6656 9.68479 53.6441 9.68858 53.615 9.69617C53.5241 9.71988 53.3602 9.77996 53.2111 9.83466C52.7973 9.98579 52.4968 10.0898 52.3968 10.0487C52.3928 10.0471 52.3891 10.0452 52.3854 10.043C52.3255 10.0073 52.2838 9.89094 52.2454 9.71387C52.2236 9.61459 52.2031 9.49634 52.1807 9.36259C52.1515 9.18964 52.1193 8.99772 52.0843 8.91108C52.0763 8.89116 52.0683 8.87662 52.06 8.86934C52.0468 8.85733 52.0073 8.84974 51.9514 8.84531C51.8476 8.83678 51.6883 8.83867 51.5416 8.84026C51.0576 8.84563 50.6988 8.83931 50.5901 8.71979C50.5871 8.71631 50.584 8.71283 50.5812 8.70904C50.5748 8.70019 50.5696 8.69102 50.5656 8.68121C50.545 8.63062 50.553 8.56802 50.5892 8.4953C50.5917 8.48992 50.5944 8.48455 50.5975 8.47917C50.6107 8.45483 50.6276 8.4289 50.6475 8.40234C50.6475 8.50067 50.6577 8.59173 50.6883 8.64454C50.82 8.87093 51.2933 8.64422 51.4793 8.61861C51.7577 8.58003 52.0778 8.636 52.2826 8.84816C52.4554 9.0268 52.4729 9.34362 52.6862 9.46757C52.8618 9.56938 53.0809 9.48685 53.2629 9.39832C53.4453 9.30947 53.6546 9.21399 53.8403 9.29493C53.9787 9.355 54.0634 9.49792 54.1807 9.59499C54.2055 9.61586 54.235 9.63546 54.2669 9.63325C54.3136 9.63008 54.3467 9.58076 54.3498 9.53302C54.3621 9.34267 54.1804 9.13051 54.095 8.97305C54.0198 8.83425 53.9449 8.69418 53.8848 8.54747C53.805 8.3527 53.7728 8.15983 53.7884 7.94893C53.8191 7.53789 53.7884 7.03199 53.8805 5.70402C53.9726 4.37604 53.6963 4.34442 53.5735 3.90176C53.4615 3.49768 52.8891 3.1464 52.7902 3.08822C52.8437 3.0215 52.9127 2.98166 52.9999 3.00854C53.3243 3.10909 53.8811 4.0314 53.9707 4.51896C54.0726 5.07386 54.0275 6.24754 53.9913 7.1904L53.9904 7.2138C53.9867 7.30676 53.9827 7.39276 53.9787 7.47276C53.944 8.19587 53.9324 8.43933 54.553 9.37208C55.0315 10.0911 55.064 10.7162 54.9348 11.0615Z" fill="#3F720E"/>
<path d="M53.42 6.8739C53.4866 6.89098 53.3587 7.34818 53.42 7.60113C53.4814 7.85408 53.6349 8.32835 53.5735 8.39159C53.5121 8.45483 53.2359 7.94893 53.0824 8.01217C52.9289 8.07541 53.4814 8.86587 53.1745 9.02396C52.8676 9.18205 52.3151 8.07541 51.517 8.20188C51.3022 8.17026 52.1616 7.82246 52.622 7.60113C53.0824 7.3798 53.2973 6.84228 53.42 6.8739Z" fill="url(#paint2_linear_3604_120)"/>
<path d="M52.1172 7.9287C52.0546 7.94893 51.9914 7.97233 51.9411 8.01533C51.9294 8.02545 51.9177 8.03778 51.9162 8.05327C51.9128 8.08805 51.957 8.10355 51.9908 8.10892C52.0479 8.11809 52.1047 8.13327 52.1562 8.16046C52.2176 8.19303 52.2698 8.24172 52.3299 8.27618C52.3904 8.31065 52.4656 8.33025 52.5279 8.29927C52.5657 8.28061 52.5933 8.24583 52.6188 8.21168C52.6716 8.14022 52.7201 8.06529 52.7637 7.98751C52.7913 7.93818 52.8174 7.88633 52.8229 7.82973C52.8278 7.77946 52.8075 7.67891 52.7443 7.68207C52.7188 7.68334 52.6771 7.72381 52.6541 7.73677C52.6206 7.75543 52.5862 7.77187 52.5513 7.78673C52.4107 7.8468 52.2618 7.8819 52.1169 7.9287H52.1172Z" fill="#84C93D"/>
<path style="mix-blend-mode:lighten" opacity="0.5" d="M53.3794 3.74841C53.2646 3.5742 53.1 3.43223 52.9051 3.36868C52.8929 3.43982 52.8812 3.5176 52.9153 3.58052C52.9248 3.59823 52.9374 3.61372 52.9503 3.6289C53.0248 3.71648 53.1228 3.76707 53.1746 3.87046C53.314 4.1487 53.4644 4.5218 53.543 4.56607C53.543 4.18665 53.543 3.99693 53.3794 3.74873V3.74841Z" fill="url(#paint3_linear_3604_120)"/>
</g>
<defs>
<linearGradient id="paint0_linear_3604_120" x1="51.5643" y1="11.5651" x2="37.7603" y2="17.965" gradientUnits="userSpaceOnUse">
<stop stop-color="#FE492E"/>
<stop offset="0.44" stop-color="#FC482D"/>
<stop offset="0.6" stop-color="#F5462C"/>
<stop offset="0.71" stop-color="#E9432B"/>
<stop offset="0.81" stop-color="#D83F28"/>
<stop offset="0.89" stop-color="#C23925"/>
<stop offset="0.95" stop-color="#A83222"/>
<stop offset="1" stop-color="#912C1F"/>
</linearGradient>
<linearGradient id="paint1_linear_3604_120" x1="51.2708" y1="10.191" x2="45.188" y2="16.7493" gradientUnits="userSpaceOnUse">
<stop stop-color="#FE7147"/>
<stop offset="0.31" stop-color="#FB7046"/>
<stop offset="0.48" stop-color="#F36C44"/>
<stop offset="0.6" stop-color="#E66742"/>
<stop offset="0.72" stop-color="#D3603E"/>
<stop offset="0.81" stop-color="#BA5639"/>
<stop offset="0.91" stop-color="#9C4A33"/>
<stop offset="0.99" stop-color="#783C2C"/>
<stop offset="1" stop-color="#733A2B"/>
</linearGradient>
<linearGradient id="paint2_linear_3604_120" x1="52.5536" y1="7.32636" x2="52.521" y2="8.90725" gradientUnits="userSpaceOnUse">
<stop stop-color="#6DB528"/>
<stop offset="0.87" stop-color="#539B12"/>
<stop offset="1" stop-color="#4F970F"/>
</linearGradient>
<linearGradient id="paint3_linear_3604_120" x1="53.0546" y1="3.53783" x2="53.4971" y2="4.18465" gradientUnits="userSpaceOnUse">
<stop stop-color="#76BC33"/>
<stop offset="0.43" stop-color="#74BA32"/>
<stop offset="0.59" stop-color="#70B330"/>
<stop offset="0.7" stop-color="#69A72D"/>
<stop offset="0.79" stop-color="#5E9628"/>
<stop offset="0.87" stop-color="#508022"/>
<stop offset="0.93" stop-color="#3F661B"/>
<stop offset="0.99" stop-color="#2C4612"/>
<stop offset="1" stop-color="#2A4312"/>
</linearGradient>
<clipPath id="clip0_3604_120">
<rect width="20" height="17" fill="white" transform="translate(35 3)"/>
</clipPath>
</defs>
</svg>
