<svg width="73" height="23" viewBox="0 0 73 23" fill="none" xmlns="http://www.w3.org/2000/svg">
<circle cx="11.5" cy="11.5" r="11.5" fill="#D89F65"/>
<path d="M12.684 16.14C11.9747 16.14 11.312 16.014 10.696 15.762C10.08 15.5007 9.53867 15.1413 9.072 14.684C8.61467 14.2173 8.25533 13.6807 7.994 13.074C7.73267 12.4673 7.602 11.8093 7.602 11.1C7.602 10.3907 7.73267 9.73267 7.994 9.126C8.25533 8.51933 8.61467 7.98733 9.072 7.53C9.53867 7.06333 10.08 6.704 10.696 6.452C11.312 6.19067 11.9747 6.06 12.684 6.06C13.1413 6.06 13.5847 6.11133 14.014 6.214C14.4433 6.31667 14.8307 6.466 15.176 6.662C15.2973 6.72733 15.386 6.816 15.442 6.928C15.498 7.03067 15.526 7.13333 15.526 7.236C15.526 7.432 15.4607 7.60467 15.33 7.754C15.2087 7.894 15.0547 7.964 14.868 7.964C14.8027 7.964 14.7327 7.95467 14.658 7.936C14.5927 7.91733 14.532 7.894 14.476 7.866C14.2147 7.73533 13.9347 7.63733 13.636 7.572C13.3373 7.49733 13.02 7.46 12.684 7.46C12.012 7.46 11.4053 7.62333 10.864 7.95C10.3227 8.26733 9.89333 8.70133 9.576 9.252C9.268 9.80267 9.114 10.4187 9.114 11.1C9.114 11.772 9.268 12.388 9.576 12.948C9.89333 13.4987 10.3227 13.9373 10.864 14.264C11.4053 14.5813 12.012 14.74 12.684 14.74C13.0107 14.74 13.356 14.7027 13.72 14.628C14.084 14.544 14.392 14.4367 14.644 14.306L14.532 14.684V12.024L14.756 12.22H12.922C12.7167 12.22 12.544 12.1547 12.404 12.024C12.2733 11.8933 12.208 11.7253 12.208 11.52C12.208 11.3147 12.2733 11.1467 12.404 11.016C12.544 10.8853 12.7167 10.82 12.922 10.82H15.344C15.54 10.82 15.7033 10.89 15.834 11.03C15.974 11.1607 16.044 11.3287 16.044 11.534V14.642C16.044 14.7913 16.0067 14.9173 15.932 15.02C15.8573 15.1227 15.7733 15.2067 15.68 15.272C15.26 15.5333 14.7933 15.7433 14.28 15.902C13.776 16.0607 13.244 16.14 12.684 16.14Z" fill="white"/>
<g clip-path="url(#clip0_3604_12)">
<path d="M53.4465 13.9315C52.6258 15.1361 49.8904 17.0696 46.3078 18.9768C44.9527 19.6984 43.5291 20.0414 42.0764 19.9962C40.8477 19.9576 39.8327 19.6592 39.0914 19.441C38.8492 19.3698 38.6399 19.3082 38.4637 19.2677C37.9419 19.1482 37.1552 18.8127 36.305 18.3479C35.7415 18.0397 35.1252 17.6564 35.018 17.5116C35.011 17.5021 35.0064 17.4936 35.0039 17.4863C34.9984 17.4705 34.9987 17.4544 35.0048 17.4408C35.0067 17.4364 35.0091 17.4319 35.0122 17.4282C35.0975 17.3181 35.3247 17.026 37.6506 17.1186C40.5352 17.2334 43.4217 15.6427 45.6577 13.8828C46.3118 13.368 46.9217 12.7904 47.456 12.1444C48.0082 11.4769 48.3477 10.7453 48.7823 10.0079C49.2753 9.17162 50.4257 8.58984 51.3188 8.33404C51.3281 8.33151 51.3379 8.33183 51.3471 8.33531C51.4496 8.37325 53.3551 9.08688 54.3339 9.70217C54.608 9.87418 54.8093 10.0386 54.8784 10.1783C55.2044 10.8382 54.2375 12.7701 53.4465 13.9311V13.9315Z" fill="#FF2311"/>
<path opacity="0.6" d="M53.4465 13.9315C52.6258 15.1361 49.8904 17.0696 46.3078 18.9768C44.9527 19.6984 43.5291 20.0414 42.0764 19.9962C40.8477 19.9576 39.8327 19.6591 39.0914 19.441C38.8492 19.3698 38.6399 19.3082 38.4637 19.2677C37.9419 19.1482 37.1552 18.8127 36.305 18.3479C35.7415 18.0396 35.1252 17.6564 35.018 17.5116C35.011 17.5021 35.0064 17.4936 35.0039 17.4863C34.9984 17.4705 34.9987 17.4544 35.0048 17.4408C36.3422 17.7728 38.3216 18.8548 39.5159 19.1419C43.8502 20.1831 46.8388 17.7788 48.4137 16.8027C49.0886 16.3844 49.7077 15.8785 50.3201 15.3685C51.2728 14.5752 52.2234 13.7585 52.9665 12.7556C53.3695 12.2117 53.7074 11.611 53.933 10.9663C54.0665 10.5853 54.0963 10.0569 54.3339 9.70248C54.608 9.87449 54.8093 10.0389 54.8784 10.1787C55.2044 10.8385 54.2375 12.7704 53.4465 13.9315Z" fill="#C91B16"/>
<path style="mix-blend-mode:lighten" d="M42.5788 18.482C43.7403 18.2834 44.8643 17.8768 45.8806 17.2524C46.9585 16.59 47.9441 15.7827 48.9631 15.028C49.7446 14.4491 50.5497 13.8983 51.2648 13.2346C51.98 12.5709 52.6098 11.7811 52.9484 10.8531C53.0515 10.5701 53.1273 10.258 53.0454 9.96746C52.9469 9.61776 52.639 9.37113 52.3161 9.22347C51.7059 8.9446 50.9822 8.9427 50.3707 9.21905C49.9076 9.42836 49.5141 9.7945 49.2581 10.2432C48.9843 10.7231 48.9309 11.3074 48.6236 11.7688C48.3017 12.2522 47.8557 12.6364 47.4208 13.0069C46.0153 14.204 44.6507 15.611 42.9947 16.4189C42.5472 16.6371 41.8683 17.0225 41.3646 17.0225C40.6807 17.2015 39.9794 17.2979 39.2888 17.4516C38.2265 17.6877 37.2102 17.3289 36.4769 17.4032C36.4186 17.4092 36.3689 17.493 36.4155 17.5297C36.686 17.7431 37.5214 18.0719 37.7047 18.1304C39.2762 18.6325 40.9637 18.7587 42.5785 18.4823L42.5788 18.482Z" fill="url(#paint0_linear_3604_12)"/>
<path style="mix-blend-mode:lighten" d="M46.275 14.6239C47.8001 13.4752 48.6163 12.7091 49.0613 11.9645C49.4386 11.3334 49.5002 10.6994 50.0168 10.0522C50.1777 9.85047 50.3437 9.63957 50.573 9.52828C50.8023 9.41698 51.3087 9.47547 51.4557 9.68795C51.9923 10.4645 51.3977 11.6113 51.0874 12.1542C50.6801 12.8669 49.1332 14.229 48.325 14.5888C47.6924 14.8705 46.6675 15.569 46.1457 15.9168C45.7341 16.1909 45.0414 16.6605 44.4318 16.5286C44.0893 16.4543 44.5055 16.1141 44.6513 15.9905C45.1899 15.5348 45.7099 15.0495 46.275 14.6239Z" fill="url(#paint1_linear_3604_12)"/>
<path opacity="0.6" d="M50.0711 10.4841C49.9916 10.6412 49.9385 10.8085 49.9201 10.9182C49.8691 11.2249 50.2362 11.1326 50.3931 11.0387C50.5846 10.9242 50.9996 10.2707 50.673 10.1018C50.4229 9.97251 50.2077 10.2138 50.0708 10.4841H50.0711Z" fill="#FFD4D4"/>
<path opacity="0.6" d="M50.2125 11.0063C50.6422 11.1644 50.4044 11.5527 49.8749 12.1762C48.8006 13.4409 48.0517 13.7422 48.0026 13.7255C47.9535 13.7087 48.6164 13.2828 49.2303 12.3659C49.6797 11.6946 49.9838 10.9222 50.2125 11.0063Z" fill="#FFD4D4"/>
<path d="M54.9349 11.0614C54.8926 11.1749 54.833 11.2512 54.7756 11.2651C54.7548 11.2701 54.7302 11.2613 54.7007 11.2379C54.6958 11.2341 54.6909 11.23 54.686 11.2252C54.5737 11.1247 54.3966 10.8369 54.1114 10.3538C53.9604 10.098 53.7763 9.78595 53.7001 9.70532C53.6906 9.6952 53.6826 9.68856 53.6768 9.68635C53.6658 9.68477 53.6443 9.68856 53.6151 9.69615C53.5243 9.71987 53.3604 9.77994 53.2112 9.83464C52.7974 9.98578 52.4969 10.0898 52.3969 10.0487C52.3929 10.0471 52.3892 10.0452 52.3855 10.043C52.3257 10.0073 52.2839 9.89092 52.2456 9.71386C52.2238 9.61458 52.2032 9.49632 52.1808 9.36258C52.1516 9.18962 52.1194 8.9977 52.0844 8.91107C52.0764 8.89115 52.0685 8.8766 52.0602 8.86933C52.047 8.85731 52.0074 8.84973 51.9515 8.8453C51.8478 8.83676 51.6885 8.83866 51.5418 8.84024C51.0577 8.84562 50.6989 8.83929 50.5902 8.71977C50.5872 8.7163 50.5841 8.71282 50.5813 8.70902C50.5749 8.70017 50.5697 8.691 50.5657 8.6812C50.5451 8.63061 50.5531 8.56801 50.5893 8.49528C50.5918 8.48991 50.5945 8.48453 50.5976 8.47916C50.6108 8.45481 50.6277 8.42888 50.6476 8.40232C50.8659 8.10985 51.4647 7.70229 52.1041 7.59985C52.5289 7.53187 52.8502 7.19703 53.0789 6.84353C53.2551 6.57161 53.4177 6.27124 53.4929 5.94652C53.5761 5.58859 53.5289 5.22024 53.4708 4.862C53.3917 4.37255 52.9908 3.91408 52.6799 3.54636C52.6633 3.52675 52.6458 3.50588 52.6406 3.48027C52.6357 3.45656 52.6418 3.43221 52.6479 3.40881C52.6713 3.32092 52.7164 3.17926 52.7904 3.0882C52.8438 3.02149 52.9128 2.98165 53 3.00852C53.3244 3.10907 53.8812 4.03138 53.9708 4.51894C54.0728 5.07384 54.0276 6.24752 53.9914 7.19039L53.9905 7.21378C53.9868 7.30674 53.9828 7.39275 53.9788 7.47274C53.9441 8.19586 53.9325 8.43932 54.5531 9.37206C55.0316 10.0911 55.0642 10.7162 54.9349 11.0614Z" fill="#4F970F"/>
<path opacity="0.5" d="M54.9349 11.0614C54.8926 11.1749 54.833 11.2512 54.7756 11.2651C54.7548 11.2701 54.7302 11.2613 54.7007 11.2379C54.6958 11.2341 54.6909 11.23 54.686 11.2252C54.5737 11.1247 54.3966 10.8369 54.1114 10.3538C53.9604 10.098 53.7763 9.78595 53.7001 9.70532C53.6906 9.6952 53.6826 9.68856 53.6768 9.68635C53.6658 9.68477 53.6443 9.68856 53.6151 9.69615C53.5243 9.71987 53.3604 9.77994 53.2112 9.83464C52.7974 9.98578 52.4969 10.0898 52.3969 10.0487C52.3929 10.0471 52.3892 10.0452 52.3855 10.043C52.3257 10.0073 52.2839 9.89092 52.2456 9.71386C52.2238 9.61458 52.2032 9.49632 52.1808 9.36258C52.1516 9.18962 52.1194 8.9977 52.0844 8.91107C52.0764 8.89115 52.0685 8.8766 52.0602 8.86933C52.047 8.85731 52.0074 8.84973 51.9515 8.8453C51.8478 8.83676 51.6885 8.83866 51.5418 8.84024C51.0577 8.84562 50.6989 8.83929 50.5902 8.71977C50.5872 8.7163 50.5841 8.71282 50.5813 8.70902C50.5749 8.70017 50.5697 8.691 50.5657 8.6812C50.5451 8.63061 50.5531 8.56801 50.5893 8.49528C50.5918 8.48991 50.5945 8.48453 50.5976 8.47916C50.6108 8.45481 50.6277 8.42888 50.6476 8.40232C50.6476 8.50066 50.6578 8.59172 50.6885 8.64452C50.8201 8.87091 51.2934 8.64421 51.4794 8.61859C51.7578 8.58002 52.078 8.63598 52.2827 8.84815C52.4555 9.02679 52.473 9.34361 52.6863 9.46755C52.8619 9.56936 53.081 9.48684 53.2631 9.39831C53.4454 9.30946 53.6547 9.21397 53.8404 9.29491C53.9788 9.35499 54.0635 9.4979 54.1808 9.59497C54.2057 9.61584 54.2351 9.63545 54.267 9.63323C54.3137 9.63007 54.3468 9.58075 54.3499 9.533C54.3622 9.34266 54.1805 9.1305 54.0952 8.97304C54.02 8.83423 53.9451 8.69416 53.8849 8.54745C53.8051 8.35268 53.7729 8.15981 53.7885 7.94892C53.8192 7.53787 53.7885 7.03198 53.8806 5.704C53.9727 4.37602 53.6964 4.34441 53.5737 3.90175C53.4616 3.49766 52.8892 3.14638 52.7904 3.0882C52.8438 3.02149 52.9128 2.98165 53 3.00852C53.3244 3.10907 53.8812 4.03138 53.9708 4.51894C54.0728 5.07384 54.0276 6.24752 53.9914 7.19039L53.9905 7.21378C53.9868 7.30674 53.9828 7.39275 53.9788 7.47274C53.9441 8.19586 53.9325 8.43932 54.5531 9.37206C55.0316 10.0911 55.0642 10.7162 54.9349 11.0614Z" fill="#3F720E"/>
<path d="M53.4202 6.87388C53.4868 6.89095 53.3588 7.34816 53.4202 7.60111C53.4815 7.85405 53.635 8.32833 53.5736 8.39157C53.5122 8.45481 53.236 7.94891 53.0825 8.01215C52.9291 8.07538 53.4815 8.86585 53.1746 9.02394C52.8677 9.18203 52.3152 8.07538 51.5172 8.20186C51.3023 8.17024 52.1617 7.82244 52.6221 7.60111C53.0825 7.37978 53.2974 6.84226 53.4202 6.87388Z" fill="url(#paint2_linear_3604_12)"/>
<path d="M52.1172 7.92867C52.0546 7.94891 51.9914 7.97231 51.9411 8.01531C51.9294 8.02543 51.9177 8.03776 51.9162 8.05325C51.9128 8.08803 51.957 8.10352 51.9908 8.1089C52.0479 8.11807 52.1047 8.13325 52.1562 8.16044C52.2176 8.193 52.2698 8.2417 52.3299 8.27616C52.3904 8.31062 52.4656 8.33023 52.5279 8.29924C52.5657 8.28059 52.5933 8.24581 52.6188 8.21166C52.6716 8.1402 52.7201 8.06527 52.7637 7.98748C52.7913 7.93816 52.8174 7.8863 52.8229 7.82971C52.8278 7.77943 52.8075 7.67889 52.7443 7.68205C52.7188 7.68331 52.6771 7.72379 52.6541 7.73675C52.6206 7.7554 52.5862 7.77185 52.5513 7.78671C52.4107 7.84678 52.2618 7.88188 52.1169 7.92867H52.1172Z" fill="#84C93D"/>
<path style="mix-blend-mode:lighten" opacity="0.5" d="M53.3794 3.74839C53.2646 3.57417 53.1 3.43221 52.9051 3.36865C52.8929 3.43979 52.8812 3.51758 52.9153 3.5805C52.9248 3.5982 52.9374 3.6137 52.9503 3.62887C53.0248 3.71646 53.1228 3.76705 53.1746 3.87044C53.314 4.14868 53.4644 4.52178 53.543 4.56604C53.543 4.18662 53.543 3.99691 53.3794 3.74871V3.74839Z" fill="url(#paint3_linear_3604_12)"/>
</g>
<g clip-path="url(#clip1_3604_12)">
<path d="M71.4465 13.9315C70.6258 15.1361 67.8904 17.0696 64.3078 18.9768C62.9527 19.6984 61.5291 20.0414 60.0764 19.9962C58.8477 19.9576 57.8327 19.6592 57.0914 19.441C56.8492 19.3698 56.6399 19.3082 56.4637 19.2677C55.9419 19.1482 55.1552 18.8127 54.305 18.3479C53.7415 18.0397 53.1252 17.6564 53.018 17.5116C53.011 17.5021 53.0064 17.4936 53.0039 17.4863C52.9984 17.4705 52.9987 17.4544 53.0048 17.4408C53.0067 17.4364 53.0091 17.4319 53.0122 17.4282C53.0975 17.3181 53.3247 17.026 55.6506 17.1186C58.5352 17.2334 61.4217 15.6427 63.6577 13.8828C64.3118 13.368 64.9217 12.7904 65.456 12.1444C66.0082 11.4769 66.3477 10.7453 66.7823 10.0079C67.2753 9.17162 68.4257 8.58984 69.3188 8.33404C69.3281 8.33151 69.3379 8.33183 69.3471 8.33531C69.4496 8.37325 71.3551 9.08688 72.3339 9.70217C72.608 9.87418 72.8093 10.0386 72.8784 10.1783C73.2044 10.8382 72.2375 12.7701 71.4465 13.9311V13.9315Z" fill="#FF2311"/>
<path opacity="0.6" d="M71.4465 13.9315C70.6258 15.1361 67.8904 17.0696 64.3078 18.9768C62.9527 19.6984 61.5291 20.0414 60.0764 19.9962C58.8477 19.9576 57.8327 19.6591 57.0914 19.441C56.8492 19.3698 56.6399 19.3082 56.4637 19.2677C55.9419 19.1482 55.1552 18.8127 54.305 18.3479C53.7415 18.0396 53.1252 17.6564 53.018 17.5116C53.011 17.5021 53.0064 17.4936 53.0039 17.4863C52.9984 17.4705 52.9987 17.4544 53.0048 17.4408C54.3422 17.7728 56.3216 18.8548 57.5159 19.1419C61.8502 20.1831 64.8388 17.7788 66.4137 16.8027C67.0886 16.3844 67.7077 15.8785 68.3201 15.3685C69.2728 14.5752 70.2234 13.7585 70.9665 12.7556C71.3695 12.2117 71.7074 11.611 71.933 10.9663C72.0665 10.5853 72.0963 10.0569 72.3339 9.70248C72.608 9.87449 72.8093 10.0389 72.8784 10.1787C73.2044 10.8385 72.2375 12.7704 71.4465 13.9315Z" fill="#C91B16"/>
<path style="mix-blend-mode:lighten" d="M60.5788 18.482C61.7403 18.2834 62.8643 17.8768 63.8806 17.2524C64.9585 16.59 65.9441 15.7827 66.9631 15.028C67.7446 14.4491 68.5497 13.8983 69.2648 13.2346C69.98 12.5709 70.6098 11.7811 70.9484 10.8531C71.0515 10.5701 71.1273 10.258 71.0454 9.96746C70.9469 9.61776 70.639 9.37113 70.3161 9.22347C69.7059 8.9446 68.9822 8.9427 68.3707 9.21905C67.9076 9.42836 67.5141 9.7945 67.2581 10.2432C66.9843 10.7231 66.9309 11.3074 66.6236 11.7688C66.3017 12.2522 65.8557 12.6364 65.4208 13.0069C64.0153 14.204 62.6507 15.611 60.9947 16.4189C60.5472 16.6371 59.8683 17.0225 59.3646 17.0225C58.6807 17.2015 57.9794 17.2979 57.2888 17.4516C56.2265 17.6877 55.2102 17.3289 54.4769 17.4032C54.4186 17.4092 54.3689 17.493 54.4155 17.5297C54.686 17.7431 55.5214 18.0719 55.7047 18.1304C57.2762 18.6325 58.9637 18.7587 60.5785 18.4823L60.5788 18.482Z" fill="url(#paint4_linear_3604_12)"/>
<path style="mix-blend-mode:lighten" d="M64.275 14.6239C65.8001 13.4752 66.6163 12.7091 67.0613 11.9645C67.4386 11.3334 67.5002 10.6994 68.0168 10.0522C68.1777 9.85047 68.3437 9.63957 68.573 9.52828C68.8023 9.41698 69.3087 9.47547 69.4557 9.68795C69.9923 10.4645 69.3977 11.6113 69.0874 12.1542C68.6801 12.8669 67.1332 14.229 66.325 14.5888C65.6924 14.8705 64.6675 15.569 64.1457 15.9168C63.7341 16.1909 63.0414 16.6605 62.4318 16.5286C62.0893 16.4543 62.5055 16.1141 62.6513 15.9905C63.1899 15.5348 63.7099 15.0495 64.275 14.6239Z" fill="url(#paint5_linear_3604_12)"/>
<path opacity="0.6" d="M68.0711 10.4841C67.9916 10.6412 67.9385 10.8085 67.9201 10.9182C67.8691 11.2249 68.2362 11.1326 68.3931 11.0387C68.5846 10.9242 68.9996 10.2707 68.673 10.1018C68.4229 9.97251 68.2077 10.2138 68.0708 10.4841H68.0711Z" fill="#FFD4D4"/>
<path opacity="0.6" d="M67.921 11.3637C68.3507 11.5218 68.1128 11.9101 67.5834 12.5336C66.5091 13.7983 65.7602 14.0997 65.7111 14.0829C65.662 14.0662 66.3249 13.6403 66.9388 12.7233C67.3882 12.0521 67.6923 11.2796 67.921 11.3637Z" fill="#FFD4D4"/>
<path d="M72.9349 11.0614C72.8926 11.1749 72.833 11.2512 72.7756 11.2651C72.7548 11.2701 72.7302 11.2613 72.7007 11.2379C72.6958 11.2341 72.6909 11.23 72.686 11.2252C72.5737 11.1247 72.3966 10.8369 72.1114 10.3538C71.9604 10.098 71.7763 9.78595 71.7001 9.70532C71.6906 9.6952 71.6826 9.68856 71.6768 9.68635C71.6658 9.68477 71.6443 9.68856 71.6151 9.69615C71.5243 9.71987 71.3604 9.77994 71.2112 9.83464C70.7974 9.98578 70.4969 10.0898 70.3969 10.0487C70.3929 10.0471 70.3892 10.0452 70.3855 10.043C70.3257 10.0073 70.2839 9.89092 70.2456 9.71386C70.2238 9.61458 70.2032 9.49632 70.1808 9.36258C70.1516 9.18962 70.1194 8.9977 70.0844 8.91107C70.0764 8.89115 70.0685 8.8766 70.0602 8.86933C70.047 8.85731 70.0074 8.84973 69.9515 8.8453C69.8478 8.83676 69.6885 8.83866 69.5418 8.84024C69.0577 8.84562 68.6989 8.83929 68.5902 8.71977C68.5872 8.7163 68.5841 8.71282 68.5813 8.70902C68.5749 8.70017 68.5697 8.691 68.5657 8.6812C68.5451 8.63061 68.5531 8.56801 68.5893 8.49528C68.5918 8.48991 68.5945 8.48453 68.5976 8.47916C68.6108 8.45481 68.6277 8.42888 68.6476 8.40232C68.8659 8.10985 69.4647 7.70229 70.1041 7.59985C70.5289 7.53187 70.8502 7.19703 71.0789 6.84353C71.2551 6.57161 71.4177 6.27124 71.4929 5.94652C71.5761 5.58859 71.5289 5.22024 71.4708 4.862C71.3917 4.37255 70.9908 3.91408 70.6799 3.54636C70.6633 3.52675 70.6458 3.50588 70.6406 3.48027C70.6357 3.45656 70.6418 3.43221 70.6479 3.40881C70.6713 3.32092 70.7164 3.17926 70.7904 3.0882C70.8438 3.02149 70.9128 2.98165 71 3.00852C71.3244 3.10907 71.8812 4.03138 71.9708 4.51894C72.0728 5.07384 72.0276 6.24752 71.9914 7.19039L71.9905 7.21378C71.9868 7.30674 71.9828 7.39275 71.9788 7.47274C71.9441 8.19586 71.9325 8.43932 72.5531 9.37206C73.0316 10.0911 73.0642 10.7162 72.9349 11.0614Z" fill="#4F970F"/>
<path opacity="0.5" d="M72.9349 11.0614C72.8926 11.1749 72.833 11.2512 72.7756 11.2651C72.7548 11.2701 72.7302 11.2613 72.7007 11.2379C72.6958 11.2341 72.6909 11.23 72.686 11.2252C72.5737 11.1247 72.3966 10.8369 72.1114 10.3538C71.9604 10.098 71.7763 9.78595 71.7001 9.70532C71.6906 9.6952 71.6826 9.68856 71.6768 9.68635C71.6658 9.68477 71.6443 9.68856 71.6151 9.69615C71.5243 9.71987 71.3604 9.77994 71.2112 9.83464C70.7974 9.98578 70.4969 10.0898 70.3969 10.0487C70.3929 10.0471 70.3892 10.0452 70.3855 10.043C70.3257 10.0073 70.2839 9.89092 70.2456 9.71386C70.2238 9.61458 70.2032 9.49632 70.1808 9.36258C70.1516 9.18962 70.1194 8.9977 70.0844 8.91107C70.0764 8.89115 70.0685 8.8766 70.0602 8.86933C70.047 8.85731 70.0074 8.84973 69.9515 8.8453C69.8478 8.83676 69.6885 8.83866 69.5418 8.84024C69.0577 8.84562 68.6989 8.83929 68.5902 8.71977C68.5872 8.7163 68.5841 8.71282 68.5813 8.70902C68.5749 8.70017 68.5697 8.691 68.5657 8.6812C68.5451 8.63061 68.5531 8.56801 68.5893 8.49528C68.5918 8.48991 68.5945 8.48453 68.5976 8.47916C68.6108 8.45481 68.6277 8.42888 68.6476 8.40232C68.6476 8.50066 68.6578 8.59172 68.6885 8.64452C68.8201 8.87091 69.2934 8.64421 69.4794 8.61859C69.7578 8.58002 70.078 8.63598 70.2827 8.84815C70.4555 9.02679 70.473 9.34361 70.6863 9.46755C70.8619 9.56936 71.081 9.48684 71.2631 9.39831C71.4454 9.30946 71.6547 9.21397 71.8404 9.29491C71.9788 9.35499 72.0635 9.4979 72.1808 9.59497C72.2057 9.61584 72.2351 9.63545 72.267 9.63323C72.3137 9.63007 72.3468 9.58075 72.3499 9.533C72.3622 9.34266 72.1805 9.1305 72.0952 8.97304C72.02 8.83423 71.9451 8.69416 71.8849 8.54745C71.8051 8.35268 71.7729 8.15981 71.7885 7.94892C71.8192 7.53787 71.7885 7.03198 71.8806 5.704C71.9727 4.37602 71.6964 4.34441 71.5737 3.90175C71.4616 3.49766 70.8892 3.14638 70.7904 3.0882C70.8438 3.02149 70.9128 2.98165 71 3.00852C71.3244 3.10907 71.8812 4.03138 71.9708 4.51894C72.0728 5.07384 72.0276 6.24752 71.9914 7.19039L71.9905 7.21378C71.9868 7.30674 71.9828 7.39275 71.9788 7.47274C71.9441 8.19586 71.9325 8.43932 72.5531 9.37206C73.0316 10.0911 73.0642 10.7162 72.9349 11.0614Z" fill="#3F720E"/>
<path d="M71.4202 6.87388C71.4868 6.89095 71.3588 7.34816 71.4202 7.60111C71.4815 7.85405 71.635 8.32833 71.5736 8.39157C71.5122 8.45481 71.236 7.94891 71.0825 8.01215C70.9291 8.07538 71.4815 8.86585 71.1746 9.02394C70.8677 9.18203 70.3152 8.07538 69.5172 8.20186C69.3023 8.17024 70.1617 7.82244 70.6221 7.60111C71.0825 7.37978 71.2974 6.84226 71.4202 6.87388Z" fill="url(#paint6_linear_3604_12)"/>
<path d="M70.1172 7.92867C70.0546 7.94891 69.9914 7.97231 69.9411 8.01531C69.9294 8.02543 69.9177 8.03776 69.9162 8.05325C69.9128 8.08803 69.957 8.10352 69.9908 8.1089C70.0479 8.11807 70.1047 8.13325 70.1562 8.16044C70.2176 8.193 70.2698 8.2417 70.3299 8.27616C70.3904 8.31062 70.4656 8.33023 70.5279 8.29924C70.5657 8.28059 70.5933 8.24581 70.6188 8.21166C70.6716 8.1402 70.7201 8.06527 70.7637 7.98748C70.7913 7.93816 70.8174 7.8863 70.8229 7.82971C70.8278 7.77943 70.8075 7.67889 70.7443 7.68205C70.7188 7.68331 70.6771 7.72379 70.6541 7.73675C70.6206 7.7554 70.5862 7.77185 70.5513 7.78671C70.4107 7.84678 70.2618 7.88188 70.1169 7.92867H70.1172Z" fill="#84C93D"/>
<path style="mix-blend-mode:lighten" opacity="0.5" d="M71.3794 3.74839C71.2646 3.57417 71.1 3.43221 70.9051 3.36865C70.8929 3.43979 70.8812 3.51758 70.9153 3.5805C70.9248 3.5982 70.9374 3.6137 70.9503 3.62887C71.0248 3.71646 71.1228 3.76705 71.1746 3.87044C71.314 4.14868 71.4644 4.52178 71.543 4.56604C71.543 4.18662 71.543 3.99691 71.3794 3.74871V3.74839Z" fill="url(#paint7_linear_3604_12)"/>
</g>
<defs>
<linearGradient id="paint0_linear_3604_12" x1="51.5644" y1="11.5651" x2="37.7604" y2="17.965" gradientUnits="userSpaceOnUse">
<stop stop-color="#FE492E"/>
<stop offset="0.44" stop-color="#FC482D"/>
<stop offset="0.6" stop-color="#F5462C"/>
<stop offset="0.71" stop-color="#E9432B"/>
<stop offset="0.81" stop-color="#D83F28"/>
<stop offset="0.89" stop-color="#C23925"/>
<stop offset="0.95" stop-color="#A83222"/>
<stop offset="1" stop-color="#912C1F"/>
</linearGradient>
<linearGradient id="paint1_linear_3604_12" x1="51.271" y1="10.191" x2="45.1881" y2="16.7493" gradientUnits="userSpaceOnUse">
<stop stop-color="#FE7147"/>
<stop offset="0.31" stop-color="#FB7046"/>
<stop offset="0.48" stop-color="#F36C44"/>
<stop offset="0.6" stop-color="#E66742"/>
<stop offset="0.72" stop-color="#D3603E"/>
<stop offset="0.81" stop-color="#BA5639"/>
<stop offset="0.91" stop-color="#9C4A33"/>
<stop offset="0.99" stop-color="#783C2C"/>
<stop offset="1" stop-color="#733A2B"/>
</linearGradient>
<linearGradient id="paint2_linear_3604_12" x1="52.5537" y1="7.32634" x2="52.5211" y2="8.90723" gradientUnits="userSpaceOnUse">
<stop stop-color="#6DB528"/>
<stop offset="0.87" stop-color="#539B12"/>
<stop offset="1" stop-color="#4F970F"/>
</linearGradient>
<linearGradient id="paint3_linear_3604_12" x1="53.0546" y1="3.53781" x2="53.4971" y2="4.18463" gradientUnits="userSpaceOnUse">
<stop stop-color="#76BC33"/>
<stop offset="0.43" stop-color="#74BA32"/>
<stop offset="0.59" stop-color="#70B330"/>
<stop offset="0.7" stop-color="#69A72D"/>
<stop offset="0.79" stop-color="#5E9628"/>
<stop offset="0.87" stop-color="#508022"/>
<stop offset="0.93" stop-color="#3F661B"/>
<stop offset="0.99" stop-color="#2C4612"/>
<stop offset="1" stop-color="#2A4312"/>
</linearGradient>
<linearGradient id="paint4_linear_3604_12" x1="69.5644" y1="11.5651" x2="55.7604" y2="17.965" gradientUnits="userSpaceOnUse">
<stop stop-color="#FE492E"/>
<stop offset="0.44" stop-color="#FC482D"/>
<stop offset="0.6" stop-color="#F5462C"/>
<stop offset="0.71" stop-color="#E9432B"/>
<stop offset="0.81" stop-color="#D83F28"/>
<stop offset="0.89" stop-color="#C23925"/>
<stop offset="0.95" stop-color="#A83222"/>
<stop offset="1" stop-color="#912C1F"/>
</linearGradient>
<linearGradient id="paint5_linear_3604_12" x1="69.271" y1="10.191" x2="63.1881" y2="16.7493" gradientUnits="userSpaceOnUse">
<stop stop-color="#FE7147"/>
<stop offset="0.31" stop-color="#FB7046"/>
<stop offset="0.48" stop-color="#F36C44"/>
<stop offset="0.6" stop-color="#E66742"/>
<stop offset="0.72" stop-color="#D3603E"/>
<stop offset="0.81" stop-color="#BA5639"/>
<stop offset="0.91" stop-color="#9C4A33"/>
<stop offset="0.99" stop-color="#783C2C"/>
<stop offset="1" stop-color="#733A2B"/>
</linearGradient>
<linearGradient id="paint6_linear_3604_12" x1="70.5537" y1="7.32634" x2="70.5211" y2="8.90723" gradientUnits="userSpaceOnUse">
<stop stop-color="#6DB528"/>
<stop offset="0.87" stop-color="#539B12"/>
<stop offset="1" stop-color="#4F970F"/>
</linearGradient>
<linearGradient id="paint7_linear_3604_12" x1="71.0546" y1="3.53781" x2="71.4971" y2="4.18463" gradientUnits="userSpaceOnUse">
<stop stop-color="#76BC33"/>
<stop offset="0.43" stop-color="#74BA32"/>
<stop offset="0.59" stop-color="#70B330"/>
<stop offset="0.7" stop-color="#69A72D"/>
<stop offset="0.79" stop-color="#5E9628"/>
<stop offset="0.87" stop-color="#508022"/>
<stop offset="0.93" stop-color="#3F661B"/>
<stop offset="0.99" stop-color="#2C4612"/>
<stop offset="1" stop-color="#2A4312"/>
</linearGradient>
<clipPath id="clip0_3604_12">
<rect width="20" height="17" fill="white" transform="translate(35 3)"/>
</clipPath>
<clipPath id="clip1_3604_12">
<rect width="20" height="17" fill="white" transform="translate(53 3)"/>
</clipPath>
</defs>
</svg>
